<svg width="596.835" height="633.32" xmlns:xlink="http://www.w3.org/1999/xlink" xmlns="http://www.w3.org/2000/svg"><defs><linearGradient xlink:href="#D%C3%A9grad%C3%A9_sans_nom_26" id="a" gradientUnits="userSpaceOnUse" x1="254.18" y1="564.76" x2="254.18" y2="141.44"/></defs><path d="M426.77 229.29c0-34.01-27.57-61.58-61.58-61.58H202.05c-66.54 0-120.47 53.94-120.47 120.47v286.6c0 32.33 26.21 58.54 58.54 58.54h6.06c32.33 0 58.54-26.21 58.54-58.54V351.67c0-33.58 27.22-60.81 60.81-60.81h99.66c34.01 0 61.58-27.57 61.58-61.58z" style="fill:url(#a)"/><path d="M469.13 208.71h126.66c.61 0 1.1-.53 1.04-1.14C586.21 91.35 488.26 0 369.31 0H60.75C27.2 0 0 27.2 0 60.75v6.17c0 33.55 27.2 60.75 60.75 60.75h308.56c48.51 0 89.11 34.43 98.71 80.13.11.53.57.91 1.12.91z" style="fill:url(#D%C3%A9grad%C3%A9_sans_nom_26-2)"/><path d="M468.21 249.54c-.15 0-.28.11-.31.25-9.79 45.45-50.26 79.63-98.59 79.63h-62.34c-33.73 0-61.08 27.35-61.08 61.08v5.51c0 33.73 27.35 61.08 61.08 61.08h62.34c118.82 0 216.7-91.15 227.51-207.19a.334.334 0 0 0-.33-.36H468.22Z" style="fill:url(#D%C3%A9grad%C3%A9_sans_nom_26-3)"/></svg>