<svg xmlns="http://www.w3.org/2000/svg" width="596.83496" height="633.32001"><defs><linearGradient id="g" x1="254.17999" y1="564.76001" x2="254.17999" y2="141.44" gradientUnits="userSpaceOnUse"><stop offset="0" stop-color="#f193b6"/><stop offset=".59" stop-color="#e267a3"/><stop offset="1" stop-color="#bf1e83"/></linearGradient></defs><path fill="url(#g)" d="m 426.77,229.29 v 0 c 0,-34.01 -27.57,-61.58 -61.58,-61.58 H 202.05 c -66.54,0 -120.47,53.94 -120.47,120.47 v 286.6 c 0,32.33 26.21,58.54 58.54,58.54 h 6.06 c 32.33,0 58.54,-26.21 58.54,-58.54 V 351.67 c 0,-33.58 27.22,-60.81 60.81,-60.81 h 99.66 c 34.01,0 61.58,-27.57 61.58,-61.58 z"/><path fill="url(#g)" d="m 469.13,208.71 h 126.66 c 0.61,0 1.1,-0.53 1.04,-1.14 C 586.21,91.35 488.26,0 369.31,0 H 60.75 C 27.2,0 0,27.2 0,60.75 v 6.17 c 0,33.55 27.2,60.75 60.75,60.75 h 308.56 c 48.51,0 89.11,34.43 98.71,80.13 0.11,0.53 0.57,0.91 1.12,0.91 z"/><path fill="url(#g)" d="m 468.21,249.54 c -0.15,0 -0.28,0.11 -0.31,0.25 -9.79,45.45 -50.26,79.63 -98.59,79.63 h -62.34 c -33.73,0 -61.08,27.35 -61.08,61.08 v 5.51 c 0,33.73 27.35,61.08 61.08,61.08 h 62.34 c 118.82,0 216.7,-91.15 227.51,-207.19 0.02,-0.19 -0.14,-0.36 -0.33,-0.36 H 468.22 Z"/></svg>